<?xml version="1.0" standalone="no"?>
<!DOCTYPE svg PUBLIC "-//W3C//DTD SVG 20010904//EN"
 "http://www.w3.org/TR/2001/REC-SVG-20010904/DTD/svg10.dtd">
<svg version="1.0" xmlns="http://www.w3.org/2000/svg"
 viewBox="0 0 500.000000 500.000000"
 preserveAspectRatio="xMidYMid meet">

<g transform="translate(0.000000,500.000000) scale(0.100000,-0.100000)"
fill="#51D1F6" stroke="none">
<path d="M470 3247 l0 -1202 -235 -548 -235 -549 0 -199 0 -199 2500 0 2500 0
0 199 0 199 -235 549 -235 548 0 1202 0 1203 -2030 0 -2030 0 0 -1203z m3910
-47 l0 -1100 -155 0 -155 0 0 -75 0 -75 171 -2 170 -3 200 -465 c109 -256 199
-466 199 -467 0 -2 -729 -3 -1620 -3 l-1620 0 0 -75 0 -75 1640 0 1640 0 0
-80 0 -80 -2350 0 -2350 0 0 80 0 80 160 0 161 0 -3 72 -3 73 -137 3 c-76 1
-138 4 -138 5 0 1 90 211 199 467 l200 465 1660 3 1661 2 0 75 0 75 -1645 0
-1645 0 0 1100 0 1100 1880 0 1880 0 0 -1100z"/>
<path d="M700 3200 l0 -1010 1800 0 1800 0 0 1010 0 1010 -780 0 -780 0 0 -75
0 -75 705 0 705 0 0 -860 0 -860 -1650 0 -1650 0 0 860 0 860 705 0 705 0 0
75 0 75 -780 0 -780 0 0 -1010z"/>
<path d="M2420 4140 l0 -70 80 0 80 0 0 70 0 70 -80 0 -80 0 0 -70z"/>
<path d="M2907 3732 c-20 -22 -22 -73 -5 -90 18 -18 73 -14 91 6 10 10 17 30
17 44 0 51 -69 78 -103 40z"/>
<path d="M1680 3490 l0 -210 106 0 c157 0 218 24 233 90 11 51 0 82 -38 107
-27 19 -30 24 -17 29 22 9 46 56 46 92 0 40 -33 79 -78 92 -20 5 -85 10 -144
10 l-108 0 0 -210z m175 120 c22 -8 26 -15 23 -42 -3 -30 -6 -33 -40 -36 l-38
-3 0 45 c0 50 7 54 55 36z m27 -177 c23 -21 23 -36 -1 -57 -12 -11 -31 -16
-53 -14 -28 3 -33 7 -36 31 -2 16 -1 35 2 43 7 19 65 18 88 -3z"/>
<path d="M2113 3578 c-28 -9 -33 -16 -33 -42 0 -51 11 -59 53 -41 47 19 76 19
84 -1 8 -21 -9 -30 -69 -37 -78 -10 -109 -49 -88 -113 21 -62 92 -84 142 -44
25 19 26 19 43 0 20 -22 74 -27 93 -8 14 14 16 68 2 68 -6 0 -10 35 -10 84 0
100 -4 112 -41 131 -32 17 -128 18 -176 3z m103 -204 c-4 -9 -15 -14 -28 -12
-32 4 -31 40 2 48 26 7 37 -8 26 -36z"/>
<path d="M2453 3582 l-53 -3 0 -150 0 -149 60 0 60 0 0 90 c0 89 0 90 28 97
15 4 35 6 45 4 16 -2 18 4 15 56 -3 52 -5 58 -23 55 -11 -2 -30 -14 -42 -28
l-23 -25 0 25 c0 31 -3 32 -67 28z"/>
<path d="M2700 3582 l-55 -3 0 -149 0 -150 60 0 60 0 -3 83 c-4 95 4 109 63
109 l35 0 0 52 c0 29 -3 55 -6 59 -10 10 -57 -13 -73 -36 l-16 -22 -5 30 c-5
30 -6 30 -60 27z"/>
<path d="M2948 3583 l-58 -4 0 -149 0 -150 60 0 59 0 0 155 c1 85 0 154 -2
153 -1 -1 -28 -3 -59 -5z"/>
<path d="M3119 3567 c-46 -31 -63 -70 -63 -143 0 -102 43 -146 143 -147 68 0
101 16 131 66 26 42 27 146 3 188 -36 60 -149 80 -214 36z m111 -77 c16 -31 8
-121 -12 -133 -31 -20 -48 8 -48 78 0 34 3 65 7 68 13 14 43 6 53 -13z"/>
<path d="M1350 2900 l0 -210 144 0 143 0 7 38 c10 64 14 62 -84 62 l-90 0 0
30 c0 29 0 29 68 32 l67 3 3 48 3 47 -70 0 -71 0 0 30 0 30 90 0 90 0 0 50 0
50 -150 0 -150 0 0 -210z"/>
<path d="M2348 3062 c-54 -13 -58 -16 -58 -43 0 -22 -5 -29 -20 -29 -16 0 -20
-7 -20 -35 0 -28 4 -35 20 -35 19 0 20 -7 20 -89 0 -111 12 -131 87 -138 42
-5 54 -2 72 16 11 11 21 33 21 49 0 24 -4 27 -32 27 -30 0 -33 3 -36 34 -2 19
-1 50 3 68 5 28 10 33 34 33 25 0 29 4 33 35 4 34 3 35 -28 35 -32 0 -33 2
-36 43 l-3 43 -57 -14z"/>
<path d="M1730 2986 c-32 -12 -35 -16 -32 -47 5 -48 8 -50 54 -33 53 18 74 18
82 -3 9 -22 -5 -29 -68 -36 -67 -8 -101 -43 -92 -96 11 -71 87 -103 145 -62
27 20 28 20 44 0 23 -26 83 -26 97 0 13 25 13 61 0 61 -6 0 -10 35 -10 84 0
75 -3 88 -24 113 -21 24 -31 28 -92 30 -39 1 -84 -3 -104 -11z m108 -188 c-3
-25 -34 -36 -50 -20 -17 17 -1 42 27 42 22 0 26 -4 23 -22z"/>
<path d="M2060 2982 c-23 -11 -39 -29 -48 -54 -21 -54 -2 -86 71 -121 57 -28
67 -47 24 -47 -12 0 -39 9 -59 19 l-36 20 -6 -22 c-11 -42 -7 -75 12 -80 107
-30 199 0 217 70 11 46 -13 83 -72 109 -30 14 -53 30 -53 39 0 19 10 19 60 -1
23 -9 42 -15 44 -13 2 2 7 23 11 45 6 37 4 42 -17 48 -43 11 -113 6 -148 -12z"/>
<path d="M2668 2976 c-36 -24 -38 -24 -38 -6 0 18 -7 20 -59 20 l-59 0 1 -150
1 -150 58 0 58 0 0 106 0 105 28 -3 27 -3 3 -102 3 -103 59 0 60 0 -2 103 -3
102 30 0 30 0 -1 -102 -1 -103 58 0 59 0 0 129 c0 111 -3 132 -19 152 -25 31
-85 32 -127 2 -30 -22 -31 -22 -50 -3 -32 33 -74 35 -116 6z"/>
<path d="M3080 2986 c-32 -12 -35 -16 -32 -47 5 -48 8 -50 54 -33 53 18 74 18
82 -3 9 -22 -5 -29 -68 -36 -67 -8 -101 -43 -92 -96 11 -71 87 -103 145 -62
27 20 28 20 44 0 23 -26 83 -26 97 0 13 25 13 61 0 61 -6 0 -10 35 -10 84 0
75 -3 88 -24 113 -21 24 -31 28 -92 30 -39 1 -84 -3 -104 -11z m108 -188 c-3
-25 -34 -36 -50 -20 -17 17 -1 42 27 42 22 0 26 -4 23 -22z"/>
<path d="M3423 2992 l-53 -3 0 -150 0 -149 60 0 60 0 -2 103 c-3 101 -3 102
21 105 36 6 42 -15 35 -115 l-6 -93 61 0 61 0 0 128 c0 142 -8 166 -60 177
-23 5 -41 0 -75 -19 l-44 -26 -3 22 c-3 21 -8 23 -55 20z"/>
<path d="M707 1783 c-4 -3 -7 -37 -7 -75 l0 -68 75 0 75 0 0 75 0 75 -68 0
c-38 0 -72 -3 -75 -7z"/>
<path d="M940 1715 l0 -75 75 0 75 0 0 75 0 75 -75 0 -75 0 0 -75z"/>
<path d="M1170 1715 l0 -75 75 0 75 0 0 75 0 75 -75 0 -75 0 0 -75z"/>
<path d="M1410 1715 l0 -75 75 0 75 0 0 75 0 75 -75 0 -75 0 0 -75z"/>
<path d="M1640 1715 l0 -75 80 0 80 0 0 75 0 75 -80 0 -80 0 0 -75z"/>
<path d="M1870 1715 l0 -75 80 0 80 0 0 75 0 75 -80 0 -80 0 0 -75z"/>
<path d="M2110 1715 l0 -75 75 0 75 0 0 75 0 75 -75 0 -75 0 0 -75z"/>
<path d="M2350 1715 l0 -75 75 0 75 0 0 75 0 75 -75 0 -75 0 0 -75z"/>
<path d="M2580 1715 l0 -75 75 0 75 0 0 75 0 75 -75 0 -75 0 0 -75z"/>
<path d="M2820 1715 l0 -75 75 0 76 0 -3 73 -3 72 -72 3 -73 3 0 -76z"/>
<path d="M3050 1715 l0 -75 75 0 75 0 0 75 0 75 -75 0 -75 0 0 -75z"/>
<path d="M3280 1715 l0 -75 75 0 75 0 0 75 0 75 -75 0 -75 0 0 -75z"/>
<path d="M3680 1715 l0 -75 75 0 75 0 0 75 0 75 -75 0 -75 0 0 -75z"/>
<path d="M3910 1715 l0 -75 75 0 75 0 0 75 0 75 -75 0 -75 0 0 -75z"/>
<path d="M4150 1715 l0 -75 75 0 76 0 -3 73 -3 72 -72 3 -73 3 0 -76z"/>
<path d="M540 1480 l0 -70 80 0 80 0 0 70 0 70 -80 0 -80 0 0 -70z"/>
<path d="M790 1480 l0 -70 70 0 70 0 0 70 0 70 -70 0 -70 0 0 -70z"/>
<path d="M1020 1480 l0 -70 75 0 75 0 0 70 0 70 -75 0 -75 0 0 -70z"/>
<path d="M1250 1480 l0 -70 75 0 75 0 0 70 0 70 -75 0 -75 0 0 -70z"/>
<path d="M1490 1480 l0 -70 70 0 70 0 0 70 0 70 -70 0 -70 0 0 -70z"/>
<path d="M1720 1480 l0 -70 75 0 75 0 0 70 0 70 -75 0 -75 0 0 -70z"/>
<path d="M1950 1480 l0 -70 75 0 75 0 0 70 0 70 -75 0 -75 0 0 -70z"/>
<path d="M2190 1480 l0 -70 80 0 80 0 0 70 0 70 -80 0 -80 0 0 -70z"/>
<path d="M2420 1480 l0 -70 80 0 80 0 0 70 0 70 -80 0 -80 0 0 -70z"/>
<path d="M2650 1480 l0 -70 80 0 80 0 0 70 0 70 -80 0 -80 0 0 -70z"/>
<path d="M2900 1480 l0 -70 75 0 75 0 0 70 0 70 -75 0 -75 0 0 -70z"/>
<path d="M3130 1480 l0 -70 75 0 75 0 0 70 0 70 -75 0 -75 0 0 -70z"/>
<path d="M3370 1480 l0 -70 70 0 70 0 0 70 0 70 -70 0 -70 0 0 -70z"/>
<path d="M3830 1480 l0 -70 75 0 75 0 0 70 0 70 -75 0 -75 0 0 -70z"/>
<path d="M4070 1480 l0 -70 70 0 70 0 0 70 0 70 -70 0 -70 0 0 -70z"/>
<path d="M4300 1480 l0 -70 80 0 80 0 0 70 0 70 -80 0 -80 0 0 -70z"/>
<path d="M470 1245 l0 -75 155 0 155 0 0 75 0 75 -155 0 -155 0 0 -75z"/>
<path d="M860 1245 l0 -75 155 0 155 0 0 75 0 75 -155 0 -155 0 0 -75z"/>
<path d="M1250 1245 l0 -75 780 0 780 0 0 75 0 75 -780 0 -780 0 0 -75z"/>
<path d="M2900 1245 l0 -75 150 0 150 0 0 75 0 75 -150 0 -150 0 0 -75z"/>
<path d="M3280 1245 l0 -75 155 0 155 0 0 75 0 75 -155 0 -155 0 0 -75z"/>
<path d="M3980 1245 l0 -75 80 0 80 0 0 75 0 75 -80 0 -80 0 0 -75z"/>
<path d="M4220 1245 l0 -75 80 0 80 0 0 75 0 75 -80 0 -80 0 0 -75z"/>
<path d="M4460 1245 l0 -75 75 0 75 0 0 75 0 75 -75 0 -75 0 0 -75z"/>
<path d="M627 1003 c-4 -3 -7 -37 -7 -75 l0 -68 80 0 80 0 0 75 0 75 -73 0
c-41 0 -77 -3 -80 -7z"/>
<path d="M940 935 l0 -75 75 0 76 0 -3 73 -3 72 -72 3 -73 3 0 -76z"/>
<path d="M1257 1003 c-4 -3 -7 -37 -7 -75 l0 -68 75 0 75 0 0 75 0 75 -68 0
c-38 0 -72 -3 -75 -7z"/>
</g>
</svg>
